<svg xmlns="http://www.w3.org/2000/svg" width="30" height="37.97" viewBox="0 0 30 37.97">
  <metadata><?xpacket begin="﻿" id="W5M0MpCehiHzreSzNTczkc9d"?>
<x:xmpmeta xmlns:x="adobe:ns:meta/" x:xmptk="Adobe XMP Core 5.6-c138 79.159824, 2016/09/14-01:09:01        ">
   <rdf:RDF xmlns:rdf="http://www.w3.org/1999/02/22-rdf-syntax-ns#">
      <rdf:Description rdf:about=""/>
   </rdf:RDF>
</x:xmpmeta>
                                                                                                    
                                                                                                    
                                                                                                    
                                                                                                    
                                                                                                    
                                                                                                    
                                                                                                    
                                                                                                    
                                                                                                    
                                                                                                    
                                                                                                    
                                                                                                    
                                                                                                    
                                                                                                    
                                                                                                    
                                                                                                    
                                                                                                    
                                                                                                    
                                                                                                    
                                                                                                    
                           
<?xpacket end="w"?></metadata>
<defs>
    <style>
      .cls-1 {
        fill: #fff;
        fill-rule: evenodd;
      }
    </style>
  </defs>
  <path id="Forma_1" data-name="Forma 1" class="cls-1" d="M651.223,1082.95l3.327-6.47a3.314,3.314,0,0,0,3.477-.78,3.361,3.361,0,0,0,0-4.73,3.322,3.322,0,0,0-4.7,0,3.358,3.358,0,0,0-.781,3.48l-6.512,3.29-6.812-6.85a1.114,1.114,0,0,0-1.568,0,14.54,14.54,0,0,0-.155,20.31l-3.728,10.12h-1.444a3.337,3.337,0,0,0-3.325,3.34v2.23a1.111,1.111,0,0,0,1.108,1.11h22.165a1.111,1.111,0,0,0,1.108-1.11v-2.23a3.337,3.337,0,0,0-3.325-3.34h-1.443l-2.121-5.79c0.448,0.04.9,0.07,1.348,0.07a14.342,14.342,0,0,0,10.187-4.24,1.111,1.111,0,0,0,0-1.57Zm3.67-10.4a1.1,1.1,0,0,1,1.567,0,1.111,1.111,0,0,1,0,1.57,1.1,1.1,0,0,1-1.567,0A1.109,1.109,0,0,1,654.893,1072.55Zm-3.332,4.89-1.983,3.86-1.895-1.9Zm-12.28,15.33a14.143,14.143,0,0,0,4.677,2.29l2.293,6.26H636.133Zm10.775,10.78a1.106,1.106,0,0,1,1.109,1.11v1.11H631.216v-1.11a1.105,1.105,0,0,1,1.109-1.11h17.731Zm-10.836-13.76a12.309,12.309,0,0,1-.749-16.5c0.508,0.51,16.774,16.85,17.17,17.25A12.164,12.164,0,0,1,639.22,1089.79Z" transform="translate(-629 -1070.03)"/>
</svg>
