<svg xmlns="http://www.w3.org/2000/svg" width="48" height="36" viewBox="0 0 48 36">
  <metadata><?xpacket begin="﻿" id="W5M0MpCehiHzreSzNTczkc9d"?>
<x:xmpmeta xmlns:x="adobe:ns:meta/" x:xmptk="Adobe XMP Core 5.6-c138 79.159824, 2016/09/14-01:09:01        ">
   <rdf:RDF xmlns:rdf="http://www.w3.org/1999/02/22-rdf-syntax-ns#">
      <rdf:Description rdf:about=""/>
   </rdf:RDF>
</x:xmpmeta>
                                                                                                    
                                                                                                    
                                                                                                    
                                                                                                    
                                                                                                    
                                                                                                    
                                                                                                    
                                                                                                    
                                                                                                    
                                                                                                    
                                                                                                    
                                                                                                    
                                                                                                    
                                                                                                    
                                                                                                    
                                                                                                    
                                                                                                    
                                                                                                    
                                                                                                    
                                                                                                    
                           
<?xpacket end="w"?></metadata>
<defs>
    <style>
      .cls-1 {
        fill: #01cbff;
        fill-rule: evenodd;
      }
    </style>
  </defs>
  <path id="Forma_1" data-name="Forma 1" class="cls-1" d="M1294.63,1102h-41.26a3.415,3.415,0,0,0-3.37,3.45v29.1a3.415,3.415,0,0,0,3.37,3.45h41.26a3.415,3.415,0,0,0,3.37-3.45v-29.1A3.415,3.415,0,0,0,1294.63,1102Zm1.77,32.55a1.8,1.8,0,0,1-1.77,1.81h-41.26a1.8,1.8,0,0,1-1.77-1.81v-29.1a1.8,1.8,0,0,1,1.77-1.81h41.26a1.8,1.8,0,0,1,1.77,1.81v29.1Zm-28.29-9.44-2.91-1.52v-0.32a5.86,5.86,0,0,0,2.73-3.57,2.449,2.449,0,0,0,1.27-2.15v-0.82a2.437,2.437,0,0,0-.92-1.92c-0.5-3.1-2.61-4.67-6.28-4.67-0.17,0-.34.01-0.51,0.02a3.979,3.979,0,0,1-2.58-.6,3.486,3.486,0,0,1-.73-0.65,0.954,0.954,0,0,0-1.12-.31,0.986,0.986,0,0,0-.59,1.03c0.03,0.3.09,0.66,0.16,1.05a1.4,1.4,0,0,1-.06,1.27c-0.08.18-.18,0.4-0.3,0.7a9.083,9.083,0,0,0-.56,2.17,2.454,2.454,0,0,0-.91,1.91v0.82a2.449,2.449,0,0,0,1.27,2.15,5.86,5.86,0,0,0,2.73,3.57v0.31l-3.02,1.52a3.505,3.505,0,0,0-1.78,3.08v1.08c0,0.66,0,2.19,8,2.19s8-1.53,8-2.19v-1.02A3.49,3.49,0,0,0,1268.11,1125.11Zm0.29,3.96c-0.5.32-2.53,0.75-6.4,0.75s-5.9-.43-6.4-0.75v-0.89a1.857,1.857,0,0,1,.92-1.63l3.09-1.55a1.457,1.457,0,0,0,.79-1.3v-1.48l-0.48-.21a4.294,4.294,0,0,1-2.42-3.12l-0.11-.44-0.42-.13a0.813,0.813,0,0,1-.57-0.77v-0.82a0.837,0.837,0,0,1,.43-0.72l0.38-.2,0.04-.44a7.975,7.975,0,0,1,.5-2.1c0.11-.27.2-0.46,0.27-0.63a2.438,2.438,0,0,0,.3-1.53,5.647,5.647,0,0,0,3.3.69c0.12-.01.25-0.02,0.38-0.02,3,0,4.46,1.11,4.74,3.6l0.05,0.43,0.38,0.2a0.825,0.825,0,0,1,.43.72v0.82a0.813,0.813,0,0,1-.57.77l-0.42.13-0.11.44a4.294,4.294,0,0,1-2.42,3.12l-0.48.21v1.49a1.439,1.439,0,0,0,.77,1.28l3.02,1.58a1.871,1.871,0,0,1,1.01,1.67v0.83Zm5.6-14.8h8a0.815,0.815,0,0,0,0-1.63h-8A0.815,0.815,0,0,0,1274,1114.27Zm11.2,0h0.8a0.815,0.815,0,0,0,0-1.63h-0.8A0.815,0.815,0,0,0,1285.2,1114.27Zm-10.4,12.28H1274a0.815,0.815,0,0,0,0,1.63h0.8A0.815,0.815,0,0,0,1274.8,1126.55Zm4.8,0H1278a0.815,0.815,0,0,0,0,1.63h1.6A0.815,0.815,0,0,0,1279.6,1126.55Zm4,0h-0.8a0.815,0.815,0,0,0,0,1.63h0.8A0.815,0.815,0,0,0,1283.6,1126.55Zm4.8,0h-1.6a0.815,0.815,0,0,0,0,1.63h1.6A0.815,0.815,0,0,0,1288.4,1126.55Zm2.63,0.23a0.9,0.9,0,0,0-.23.58,0.861,0.861,0,0,0,.23.58,0.8,0.8,0,0,0,1.14,0,0.861,0.861,0,0,0,.23-0.58,0.9,0.9,0,0,0-.23-0.58A0.834,0.834,0,0,0,1291.03,1126.78Zm0.57-9.23H1274a0.815,0.815,0,0,0,0,1.63h17.6A0.815,0.815,0,0,0,1291.6,1117.55Zm0,4.9H1274a0.82,0.82,0,0,0,0,1.64h17.6A0.82,0.82,0,0,0,1291.6,1122.45Z" transform="translate(-1250 -1102)"/>
</svg>
