<svg xmlns="http://www.w3.org/2000/svg" width="43" height="37" viewBox="0 0 43 37">
  <metadata><?xpacket begin="﻿" id="W5M0MpCehiHzreSzNTczkc9d"?>
<x:xmpmeta xmlns:x="adobe:ns:meta/" x:xmptk="Adobe XMP Core 5.6-c138 79.159824, 2016/09/14-01:09:01        ">
   <rdf:RDF xmlns:rdf="http://www.w3.org/1999/02/22-rdf-syntax-ns#">
      <rdf:Description rdf:about=""/>
   </rdf:RDF>
</x:xmpmeta>
                                                                                                    
                                                                                                    
                                                                                                    
                                                                                                    
                                                                                                    
                                                                                                    
                                                                                                    
                                                                                                    
                                                                                                    
                                                                                                    
                                                                                                    
                                                                                                    
                                                                                                    
                                                                                                    
                                                                                                    
                                                                                                    
                                                                                                    
                                                                                                    
                                                                                                    
                                                                                                    
                           
<?xpacket end="w"?></metadata>
<defs>
    <style>
      .cls-1 {
        fill: #01cbff;
        fill-rule: evenodd;
      }
    </style>
  </defs>
  <path class="cls-1" d="M655.25,1443.27a4.627,4.627,0,1,0,4.48,4.63A4.562,4.562,0,0,0,655.25,1443.27Zm0,7.4a2.776,2.776,0,1,1,2.687-2.77A2.731,2.731,0,0,1,655.25,1450.67Zm7.566-10.65-1.965-16.17h0.669a0.925,0.925,0,0,0,0-1.85H641.812a0.926,0.926,0,0,0,0,1.85h1.236l-3.907,12.99h-0.378a49.074,49.074,0,0,0-5.013.26v-2.13h1.792v-7.42H633.75v-1.85h-0.009a2.73,2.73,0,0,0-2.688-2.77,0.92,0.92,0,0,0,0,1.84,0.916,0.916,0,0,1,.9.93h0.009v1.85h-1.791v7.42h1.791v2.35c-3.722.55-7.74,1.71-8.958,4.16v9.19a8.053,8.053,0,0,0,16.075.93h6.036a10.788,10.788,0,0,0,10.139,7.4A10.929,10.929,0,0,0,666,1447.9,11.24,11.24,0,0,0,662.816,1440.02Zm-30.858-10.62h1.792v3.72h-1.792v-3.72Zm5.31,22.21a6.462,6.462,0,0,1-1.191,2.95,0.892,0.892,0,0,0-1.225.04,0.955,0.955,0,0,0-.04,1.27,6.183,6.183,0,0,1-2.857,1.22,0.893,0.893,0,0,0-1.785,0,6.183,6.183,0,0,1-2.857-1.22,0.955,0.955,0,0,0-.04-1.27,0.892,0.892,0,0,0-1.225-.04,6.462,6.462,0,0,1-1.191-2.95,0.923,0.923,0,0,0,0-1.84,6.567,6.567,0,0,1,1.181-2.97,0.871,0.871,0,0,0,1.239-.02,0.943,0.943,0,0,0,.023-1.28,6.032,6.032,0,0,1,2.872-1.23,0.894,0.894,0,0,0,1.788,0,6.032,6.032,0,0,1,2.872,1.23,0.944,0.944,0,0,0,.023,1.28,0.872,0.872,0,0,0,1.24.02,6.578,6.578,0,0,1,1.181,2.97A0.923,0.923,0,0,0,637.268,1451.61Zm7.381-1.86h-5.574a8.164,8.164,0,0,0-8.013-7.4,7.961,7.961,0,0,0-6.251,3.07l-0.017-3.41c0.851-1.14,3.136-2.1,6.386-2.69a46.319,46.319,0,0,1,7.583-.63h0.344l1.346,0.02,0.4-1.32,4.072-13.54h14.121l1.769,14.55a10.4,10.4,0,0,0-1.921-.95l-1.429-11.75H646.243l-4.452,14.8h5.446a11.264,11.264,0,0,0-2.737,7.4A11.6,11.6,0,0,0,644.649,1449.75Zm12.378-12.8a10.5,10.5,0,0,0-7.72,1.7h-5.083l3.339-11.1h8.319Zm6.393,14.75a0.888,0.888,0,0,0-1.188.36,0.94,0.94,0,0,0,.292,1.24,9.739,9.739,0,0,1-.94,1.14,8.9,8.9,0,0,1-1.1.97,0.879,0.879,0,0,0-1.2-.3,0.942,0.942,0,0,0-.346,1.23,8.66,8.66,0,0,1-2.791.76,0.894,0.894,0,0,0-1.788,0,8.653,8.653,0,0,1-2.791-.76,0.944,0.944,0,0,0-.346-1.23,0.878,0.878,0,0,0-1.2.3,9.061,9.061,0,0,1-1.105-.97,9.823,9.823,0,0,1-.938-1.14,0.941,0.941,0,0,0,.291-1.24,0.886,0.886,0,0,0-1.187-.36,9.393,9.393,0,0,1-.746-2.88,0.923,0.923,0,0,0,0-1.84,9.53,9.53,0,0,1,.746-2.89,0.875,0.875,0,0,0,1.188-.35,0.941,0.941,0,0,0-.292-1.24,9.823,9.823,0,0,1,.938-1.14,9.053,9.053,0,0,1,1.1-.97,0.88,0.88,0,0,0,1.2.3,0.944,0.944,0,0,0,.346-1.23,8.414,8.414,0,0,1,2.791-.76,0.894,0.894,0,0,0,1.788,0,8.414,8.414,0,0,1,2.791.76,0.942,0.942,0,0,0,.346,1.23,0.878,0.878,0,0,0,1.2-.3,8.9,8.9,0,0,1,1.1.97,9.739,9.739,0,0,1,.94,1.14,0.94,0.94,0,0,0-.291,1.24,0.874,0.874,0,0,0,1.187.35,9.53,9.53,0,0,1,.746,2.89,0.923,0.923,0,0,0,0,1.84A9.364,9.364,0,0,1,663.42,1451.7Zm-32.358-3.8a2.776,2.776,0,1,0,2.688,2.77A2.729,2.729,0,0,0,631.062,1447.9Zm0,3.7a0.925,0.925,0,1,1,.9-0.93A0.909,0.909,0,0,1,631.062,1451.6Z" transform="translate(-623 -1422)"/>
</svg>
