<svg xmlns="http://www.w3.org/2000/svg" width="58" height="29" viewBox="0 0 58 29">
  <metadata><?xpacket begin="﻿" id="W5M0MpCehiHzreSzNTczkc9d"?>
<x:xmpmeta xmlns:x="adobe:ns:meta/" x:xmptk="Adobe XMP Core 5.6-c138 79.159824, 2016/09/14-01:09:01        ">
   <rdf:RDF xmlns:rdf="http://www.w3.org/1999/02/22-rdf-syntax-ns#">
      <rdf:Description rdf:about=""/>
   </rdf:RDF>
</x:xmpmeta>
                                                                                                    
                                                                                                    
                                                                                                    
                                                                                                    
                                                                                                    
                                                                                                    
                                                                                                    
                                                                                                    
                                                                                                    
                                                                                                    
                                                                                                    
                                                                                                    
                                                                                                    
                                                                                                    
                                                                                                    
                                                                                                    
                                                                                                    
                                                                                                    
                                                                                                    
                                                                                                    
                           
<?xpacket end="w"?></metadata>
<defs>
    <style>
      .cls-1 {
        fill: #01cbff;
        fill-rule: evenodd;
      }
    </style>
  </defs>
  <path id="Forma_1" data-name="Forma 1" class="cls-1" d="M1303.08,1430.02h-5.94v-0.06a2.961,2.961,0,0,0-1.98-2.8v-1.22a0.925,0.925,0,1,0-1.85,0v1.22a2.965,2.965,0,0,0-1.97,2.8v0.06h-5.94a0.94,0.94,0,0,0,0,1.88h7.91v1.29a2.952,2.952,0,0,0-1.97,2.79v1.07h-2.21a3.886,3.886,0,0,0-3.77-3.01h-19.72a3.886,3.886,0,0,0-3.77,3.01h-2.21v-1.07a2.948,2.948,0,0,0-1.98-2.79v-1.29h7.92a0.94,0.94,0,0,0,0-1.88h-5.94v-0.06a2.961,2.961,0,0,0-1.98-2.8v-1.22a0.92,0.92,0,1,0-1.84,0v1.22a2.961,2.961,0,0,0-1.98,2.8v0.06h-6.94a0.94,0.94,0,0,0,0,1.88h8.92v1.29a2.948,2.948,0,0,0-1.98,2.79v2.01a2.894,2.894,0,0,0,5.65.94h2.36a3.9,3.9,0,0,0,3.75,3.02,3.752,3.752,0,0,0-.45,1.11l-2.23,9.06h-1.25a0.94,0.94,0,0,0,0,1.88h3.95a0.94,0.94,0,0,0,0-1.88h-0.79l2.11-8.6a2.036,2.036,0,0,1,1.97-1.57h13.14a2.036,2.036,0,0,1,1.97,1.57l2.11,8.6h-0.79a0.94,0.94,0,0,0,0,1.88h3.95a0.94,0.94,0,0,0,0-1.88h-1.25l-2.23-9.06a3.521,3.521,0,0,0-.46-1.11,3.9,3.9,0,0,0,3.76-3.02h2.36a2.894,2.894,0,0,0,5.65-.94v-2.01a2.948,2.948,0,0,0-1.98-2.79v-1.29h7.92A0.94,0.94,0,0,0,1303.08,1430.02Zm-47.37-.06a1.05,1.05,0,1,1,2.1,0v0.06h-2.1v-0.06Zm1.05,9.1a1.061,1.061,0,0,1-1.05-1.07v-2.01a1.05,1.05,0,1,1,2.1,0v2.01A1.061,1.061,0,0,1,1256.76,1439.06Zm28.6,1h-19.72a2.07,2.07,0,0,1,0-4.14h19.72A2.07,2.07,0,0,1,1285.36,1440.06Zm9.93-2.07a1.05,1.05,0,1,1-2.1,0v-2.01a1.05,1.05,0,1,1,2.1,0v2.01Zm-2.1-8.03a1.05,1.05,0,1,1,2.1,0v0.06h-2.1v-0.06Z" transform="translate(-1246 -1425)"/>
</svg>
