<svg xmlns="http://www.w3.org/2000/svg" width="47" height="60" viewBox="0 0 47 60">
  <metadata><?xpacket begin="﻿" id="W5M0MpCehiHzreSzNTczkc9d"?>
<x:xmpmeta xmlns:x="adobe:ns:meta/" x:xmptk="Adobe XMP Core 5.6-c138 79.159824, 2016/09/14-01:09:01        ">
   <rdf:RDF xmlns:rdf="http://www.w3.org/1999/02/22-rdf-syntax-ns#">
      <rdf:Description rdf:about=""/>
   </rdf:RDF>
</x:xmpmeta>
                                                                                                    
                                                                                                    
                                                                                                    
                                                                                                    
                                                                                                    
                                                                                                    
                                                                                                    
                                                                                                    
                                                                                                    
                                                                                                    
                                                                                                    
                                                                                                    
                                                                                                    
                                                                                                    
                                                                                                    
                                                                                                    
                                                                                                    
                                                                                                    
                                                                                                    
                                                                                                    
                           
<?xpacket end="w"?></metadata>
<defs>
    <style>
      .cls-1 {
        fill: #c713a1;
        fill-rule: evenodd;
      }
    </style>
  </defs>
  <path id="Forma_1" data-name="Forma 1" class="cls-1" d="M1027,2894h-25a1,1,0,0,0,0,2h25A1,1,0,0,0,1027,2894Zm-25-6h10a1,1,0,0,0,0-2h-10A1,1,0,0,0,1002,2888Zm25,14h-25a1,1,0,0,0,0,2h25A1,1,0,0,0,1027,2902Zm0,8h-25a1,1,0,0,0,0,2h25A1,1,0,0,0,1027,2910Zm0,8h-25a1,1,0,0,0,0,2h25A1,1,0,0,0,1027,2918Zm-3.59-46H991v60h47v-45.41Zm0.59,3.41,10.59,10.59H1024v-10.59ZM993,2930v-56h29v14h14v42H993Z" transform="translate(-991 -2872)"/>
</svg>
