<svg xmlns="http://www.w3.org/2000/svg" width="21" height="25" viewBox="0 0 21 25">
  <metadata><?xpacket begin="﻿" id="W5M0MpCehiHzreSzNTczkc9d"?>
<x:xmpmeta xmlns:x="adobe:ns:meta/" x:xmptk="Adobe XMP Core 5.6-c138 79.159824, 2016/09/14-01:09:01        ">
   <rdf:RDF xmlns:rdf="http://www.w3.org/1999/02/22-rdf-syntax-ns#">
      <rdf:Description rdf:about=""/>
   </rdf:RDF>
</x:xmpmeta>
                                                                                                    
                                                                                                    
                                                                                                    
                                                                                                    
                                                                                                    
                                                                                                    
                                                                                                    
                                                                                                    
                                                                                                    
                                                                                                    
                                                                                                    
                                                                                                    
                                                                                                    
                                                                                                    
                                                                                                    
                                                                                                    
                                                                                                    
                                                                                                    
                                                                                                    
                                                                                                    
                           
<?xpacket end="w"?></metadata>
<defs>
    <style>
      .cls-1 {
        fill: #1f1f1f;
        fill-rule: evenodd;
      }
    </style>
  </defs>
  <path class="cls-1" d="M772.494,71A10.279,10.279,0,0,0,762,81.021a9.453,9.453,0,0,0,.186,1.882c0.006,0.036.028,0.146,0.072,0.335a9.583,9.583,0,0,0,.7,1.975c1.131,2.542,3.618,6.447,9.073,10.629a0.771,0.771,0,0,0,.933,0c5.451-4.182,7.943-8.087,9.073-10.629a9.418,9.418,0,0,0,.7-1.975c0.044-.189.066-0.3,0.071-0.335A9.839,9.839,0,0,0,783,81.021,10.3,10.3,0,0,0,772.494,71Zm8.848,11.657c0,0.01,0,.021,0,0.031-0.006.026-.022,0.105-0.05,0.225v0.011a8.052,8.052,0,0,1-.609,1.708,0.225,0.225,0,0,1-.011.021c-1.026,2.322-3.277,5.865-8.173,9.727-4.9-3.863-7.146-7.406-8.172-9.727a0.225,0.225,0,0,1-.011-0.021,8.592,8.592,0,0,1-.61-1.708V82.912a2.127,2.127,0,0,1-.049-0.225c0-.01,0-0.021,0-0.037a8.169,8.169,0,0,1-.165-1.635,9.022,9.022,0,0,1,18.025,0A8.151,8.151,0,0,1,781.342,82.656Zm-8.848-7.888a6.369,6.369,0,1,0,6.664,6.363A6.528,6.528,0,0,0,772.494,74.768Zm0,11.311a4.953,4.953,0,1,1,5.182-4.948A5.075,5.075,0,0,1,772.494,86.078Z" transform="translate(-762 -71)"/>
</svg>
