<svg xmlns="http://www.w3.org/2000/svg" width="23.97" height="24" viewBox="0 0 23.97 24">
  <metadata><?xpacket begin="﻿" id="W5M0MpCehiHzreSzNTczkc9d"?>
<x:xmpmeta xmlns:x="adobe:ns:meta/" x:xmptk="Adobe XMP Core 5.6-c138 79.159824, 2016/09/14-01:09:01        ">
   <rdf:RDF xmlns:rdf="http://www.w3.org/1999/02/22-rdf-syntax-ns#">
      <rdf:Description rdf:about=""/>
   </rdf:RDF>
</x:xmpmeta>
                                                                                                    
                                                                                                    
                                                                                                    
                                                                                                    
                                                                                                    
                                                                                                    
                                                                                                    
                                                                                                    
                                                                                                    
                                                                                                    
                                                                                                    
                                                                                                    
                                                                                                    
                                                                                                    
                                                                                                    
                                                                                                    
                                                                                                    
                                                                                                    
                                                                                                    
                                                                                                    
                           
<?xpacket end="w"?></metadata>
<defs>
    <style>
      .cls-1 {
        fill: #1f1f1f;
        fill-rule: evenodd;
      }
    </style>
  </defs>
  <path class="cls-1" d="M1164.99,86.86a2.351,2.351,0,0,0-1.71-.786,2.458,2.458,0,0,0-1.74.781l-1.6,1.6c-0.13-.071-0.27-0.136-0.39-0.2-0.18-.092-0.36-0.178-0.5-0.269a17.306,17.306,0,0,1-4.18-3.8,10.075,10.075,0,0,1-1.37-2.16c0.41-.38.8-0.776,1.18-1.156,0.14-.142.28-0.289,0.42-0.431a2.318,2.318,0,0,0,0-3.508l-1.38-1.384c-0.16-.157-0.32-0.319-0.48-0.481-0.3-.314-0.62-0.639-0.95-0.943a2.4,2.4,0,0,0-1.7-.745,2.5,2.5,0,0,0-1.73.745c0,0.005,0,.005-0.01.01l-1.72,1.739a3.7,3.7,0,0,0-1.1,2.357,8.829,8.829,0,0,0,.65,3.761,21.8,21.8,0,0,0,3.88,6.468,23.886,23.886,0,0,0,7.95,6.22,12.453,12.453,0,0,0,4.47,1.318c0.11,0.005.22,0.01,0.32,0.01a3.833,3.833,0,0,0,2.93-1.257,0.045,0.045,0,0,1,.02-0.026,10.874,10.874,0,0,1,.89-0.917c0.21-.208.44-0.426,0.66-0.654a2.531,2.531,0,0,0,.76-1.754,2.443,2.443,0,0,0-.78-1.739Zm1.82,5.338h0c-0.2.213-.4,0.406-0.62,0.619-0.33.314-.66,0.644-0.98,1.014a2.436,2.436,0,0,1-1.91.806c-0.07,0-.15,0-0.23-0.005a11,11,0,0,1-3.96-1.186,22.6,22.6,0,0,1-7.49-5.86,20.437,20.437,0,0,1-3.65-6.078,7.07,7.07,0,0,1-.57-3.174,2.329,2.329,0,0,1,.7-1.506l1.73-1.728a1.152,1.152,0,0,1,.77-0.36,1.078,1.078,0,0,1,.74.355c0.01,0,.01.01,0.02,0.015,0.31,0.289.6,0.588,0.91,0.908,0.16,0.162.32,0.324,0.48,0.492l1.39,1.384a0.964,0.964,0,0,1,0,1.571c-0.15.147-.29,0.294-0.44,0.436-0.42.436-.83,0.841-1.27,1.236-0.01.01-.02,0.016-0.03,0.026a1.044,1.044,0,0,0-.26,1.151c0,0.015.01,0.03,0.01,0.045a11.144,11.144,0,0,0,1.64,2.672l0.01,0.005a18.746,18.746,0,0,0,4.5,4.1c0.21,0.132.43,0.239,0.63,0.34,0.18,0.091.35,0.177,0.5,0.268,0.02,0.01.04,0.026,0.06,0.036a1.049,1.049,0,0,0,1.28-.223l1.73-1.734a1.151,1.151,0,0,1,.77-0.38,1.047,1.047,0,0,1,.73.37c0,0.005,0,.005.01,0.01l2.8,2.793A1,1,0,0,1,1166.81,92.2Zm-7.83-14.5a6.505,6.505,0,0,1,5.32,5.313,0.689,0.689,0,0,0,.68.568,1.067,1.067,0,0,0,.12-0.01,0.687,0.687,0,0,0,.56-0.791,7.9,7.9,0,0,0-6.44-6.428,0.692,0.692,0,0,0-.79.557A0.683,0.683,0,0,0,1158.98,77.694Zm11.03,4.882a13,13,0,0,0-10.6-10.585,0.683,0.683,0,1,0-.22,1.348,11.6,11.6,0,0,1,9.47,9.46,0.671,0.671,0,0,0,.67.568,1.032,1.032,0,0,0,.12-0.01A0.678,0.678,0,0,0,1170.01,82.576Z" transform="translate(-1146.03 -72)"/>
</svg>
