<svg xmlns="http://www.w3.org/2000/svg" style="display:none"><defs><style>.cls-1{fill:#fff;fill-rule:evenodd}</style><style>.cls-1{fill:#01cbff;fill-rule:evenodd}</style><style>.cls-1{fill:#01cbff;fill-rule:evenodd}</style><style>.cls-1{fill:#01cbff;fill-rule:evenodd}</style><style>.cls-1{fill:#c713a1;fill-rule:evenodd}</style><style>.cls-1{fill:#c4c4c4;fill-rule:evenodd}</style><style>.cls-1{fill:#1f1f1f;fill-rule:evenodd}</style><style>.cls-1{fill:#1f1f1f;fill-rule:evenodd}</style></defs><symbol id="dir-icon-01" viewBox="0 0 30 37.97"><path id="Forma_1" data-name="Forma 1" class="cls-1" d="M651.223 1082.95l3.327-6.47a3.314 3.314 0 0 0 3.477-.78 3.361 3.361 0 0 0 0-4.73 3.322 3.322 0 0 0-4.7 0 3.358 3.358 0 0 0-.781 3.48l-6.512 3.29-6.812-6.85a1.114 1.114 0 0 0-1.568 0 14.54 14.54 0 0 0-.155 20.31l-3.728 10.12h-1.444a3.337 3.337 0 0 0-3.325 3.34v2.23a1.111 1.111 0 0 0 1.108 1.11h22.165a1.111 1.111 0 0 0 1.108-1.11v-2.23a3.337 3.337 0 0 0-3.325-3.34h-1.443l-2.121-5.79c.448.04.9.07 1.348.07a14.342 14.342 0 0 0 10.187-4.24 1.111 1.111 0 0 0 0-1.57zm3.67-10.4a1.1 1.1 0 0 1 1.567 0 1.111 1.111 0 0 1 0 1.57 1.1 1.1 0 0 1-1.567 0 1.109 1.109 0 0 1 0-1.57zm-3.332 4.89l-1.983 3.86-1.895-1.9zm-12.28 15.33a14.143 14.143 0 0 0 4.677 2.29l2.293 6.26h-10.118zm10.775 10.78a1.106 1.106 0 0 1 1.109 1.11v1.11h-19.949v-1.11a1.105 1.105 0 0 1 1.109-1.11h17.731zm-10.836-13.76a12.309 12.309 0 0 1-.749-16.5c.508.51 16.774 16.85 17.17 17.25a12.164 12.164 0 0 1-16.421-.75z" transform="translate(-629 -1070.03)"/></symbol><symbol id="dir-icon-02" viewBox="0 0 48 36"><path id="Forma_1" data-name="Forma 1" class="cls-1" d="M1294.63 1102h-41.26a3.415 3.415 0 0 0-3.37 3.45v29.1a3.415 3.415 0 0 0 3.37 3.45h41.26a3.415 3.415 0 0 0 3.37-3.45v-29.1a3.415 3.415 0 0 0-3.37-3.45zm1.77 32.55a1.8 1.8 0 0 1-1.77 1.81h-41.26a1.8 1.8 0 0 1-1.77-1.81v-29.1a1.8 1.8 0 0 1 1.77-1.81h41.26a1.8 1.8 0 0 1 1.77 1.81v29.1zm-28.29-9.44l-2.91-1.52v-.32a5.86 5.86 0 0 0 2.73-3.57 2.449 2.449 0 0 0 1.27-2.15v-.82a2.437 2.437 0 0 0-.92-1.92c-.5-3.1-2.61-4.67-6.28-4.67-.17 0-.34.01-.51.02a3.979 3.979 0 0 1-2.58-.6 3.486 3.486 0 0 1-.73-.65.954.954 0 0 0-1.12-.31.986.986 0 0 0-.59 1.03c.03.3.09.66.16 1.05a1.4 1.4 0 0 1-.06 1.27c-.08.18-.18.4-.3.7a9.083 9.083 0 0 0-.56 2.17 2.454 2.454 0 0 0-.91 1.91v.82a2.449 2.449 0 0 0 1.27 2.15 5.86 5.86 0 0 0 2.73 3.57v.31l-3.02 1.52a3.505 3.505 0 0 0-1.78 3.08v1.08c0 .66 0 2.19 8 2.19s8-1.53 8-2.19v-1.02a3.49 3.49 0 0 0-1.89-3.13zm.29 3.96c-.5.32-2.53.75-6.4.75s-5.9-.43-6.4-.75v-.89a1.857 1.857 0 0 1 .92-1.63l3.09-1.55a1.457 1.457 0 0 0 .79-1.3v-1.48l-.48-.21a4.294 4.294 0 0 1-2.42-3.12l-.11-.44-.42-.13a.813.813 0 0 1-.57-.77v-.82a.837.837 0 0 1 .43-.72l.38-.2.04-.44a7.975 7.975 0 0 1 .5-2.1c.11-.27.2-.46.27-.63a2.438 2.438 0 0 0 .3-1.53 5.647 5.647 0 0 0 3.3.69c.12-.01.25-.02.38-.02 3 0 4.46 1.11 4.74 3.6l.05.43.38.2a.825.825 0 0 1 .43.72v.82a.813.813 0 0 1-.57.77l-.42.13-.11.44a4.294 4.294 0 0 1-2.42 3.12l-.48.21v1.49a1.439 1.439 0 0 0 .77 1.28l3.02 1.58a1.871 1.871 0 0 1 1.01 1.67v.83zm5.6-14.8h8a.815.815 0 0 0 0-1.63h-8a.815.815 0 0 0 0 1.63zm11.2 0h.8a.815.815 0 0 0 0-1.63h-.8a.815.815 0 0 0 0 1.63zm-10.4 12.28h-.8a.815.815 0 0 0 0 1.63h.8a.815.815 0 0 0 0-1.63zm4.8 0h-1.6a.815.815 0 0 0 0 1.63h1.6a.815.815 0 0 0 0-1.63zm4 0h-.8a.815.815 0 0 0 0 1.63h.8a.815.815 0 0 0 0-1.63zm4.8 0h-1.6a.815.815 0 0 0 0 1.63h1.6a.815.815 0 0 0 0-1.63zm2.63.23a.9.9 0 0 0-.23.58.861.861 0 0 0 .23.58.8.8 0 0 0 1.14 0 .861.861 0 0 0 .23-.58.9.9 0 0 0-.23-.58.834.834 0 0 0-1.14 0zm.57-9.23H1274a.815.815 0 0 0 0 1.63h17.6a.815.815 0 0 0 0-1.63zm0 4.9H1274a.82.82 0 0 0 0 1.64h17.6a.82.82 0 0 0 0-1.64z" transform="translate(-1250 -1102)"/></symbol><symbol id="dir-icon-03" viewBox="0 0 43 37"><path class="cls-1" d="M32.25 21.27a4.627 4.627 0 1 0 4.48 4.63 4.562 4.562 0 0 0-4.48-4.63zm0 7.4a2.776 2.776 0 1 1 2.687-2.77 2.731 2.731 0 0 1-2.687 2.77zm7.566-10.65L37.851 1.85h.669a.925.925 0 0 0 0-1.85H18.812a.926.926 0 0 0 0 1.85h1.236l-3.907 12.99h-.378a49.074 49.074 0 0 0-5.013.26v-2.13h1.792V5.55H10.75V3.7h-.009A2.73 2.73 0 0 0 8.053.93a.92.92 0 0 0 0 1.84.916.916 0 0 1 .9.93h.009v1.85H7.171v7.42h1.791v2.35c-3.722.55-7.74 1.71-8.958 4.16v9.19a8.053 8.053 0 0 0 16.075.93h6.036A10.788 10.788 0 0 0 32.254 37 10.929 10.929 0 0 0 43 25.9a11.24 11.24 0 0 0-3.184-7.88zM8.958 7.4h1.792v3.72H8.958V7.4zm5.31 22.21a6.462 6.462 0 0 1-1.191 2.95.892.892 0 0 0-1.225.04.955.955 0 0 0-.04 1.27 6.183 6.183 0 0 1-2.857 1.22.893.893 0 0 0-1.785 0 6.183 6.183 0 0 1-2.857-1.22.955.955 0 0 0-.04-1.27.892.892 0 0 0-1.225-.04 6.462 6.462 0 0 1-1.191-2.95.923.923 0 0 0 0-1.84 6.567 6.567 0 0 1 1.181-2.97.871.871 0 0 0 1.239-.02.943.943 0 0 0 .023-1.28 6.032 6.032 0 0 1 2.872-1.23.894.894 0 0 0 1.788 0 6.032 6.032 0 0 1 2.872 1.23.944.944 0 0 0 .023 1.28.872.872 0 0 0 1.24.02 6.578 6.578 0 0 1 1.181 2.97.923.923 0 0 0-.008 1.84zm7.381-1.86h-5.574a8.164 8.164 0 0 0-8.013-7.4 7.961 7.961 0 0 0-6.251 3.07l-.017-3.41c.851-1.14 3.136-2.1 6.386-2.69a46.319 46.319 0 0 1 7.583-.63h.344l1.346.02.4-1.32 4.072-13.54h14.121l1.769 14.55a10.4 10.4 0 0 0-1.921-.95L34.465 3.7H23.243l-4.452 14.8h5.446a11.264 11.264 0 0 0-2.737 7.4 11.6 11.6 0 0 0 .149 1.85zm12.378-12.8a10.5 10.5 0 0 0-7.72 1.7h-5.083l3.339-11.1h8.319zM40.42 29.7a.888.888 0 0 0-1.188.36.94.94 0 0 0 .292 1.24 9.739 9.739 0 0 1-.94 1.14 8.9 8.9 0 0 1-1.1.97.879.879 0 0 0-1.2-.3.942.942 0 0 0-.346 1.23 8.66 8.66 0 0 1-2.791.76.894.894 0 0 0-1.788 0 8.653 8.653 0 0 1-2.791-.76.944.944 0 0 0-.346-1.23.878.878 0 0 0-1.2.3 9.061 9.061 0 0 1-1.105-.97 9.823 9.823 0 0 1-.938-1.14.941.941 0 0 0 .291-1.24.886.886 0 0 0-1.187-.36 9.393 9.393 0 0 1-.746-2.88.923.923 0 0 0 0-1.84 9.53 9.53 0 0 1 .746-2.89.875.875 0 0 0 1.188-.35.941.941 0 0 0-.292-1.24 9.823 9.823 0 0 1 .938-1.14 9.053 9.053 0 0 1 1.1-.97.88.88 0 0 0 1.2.3.944.944 0 0 0 .346-1.23 8.414 8.414 0 0 1 2.791-.76.894.894 0 0 0 1.788 0 8.414 8.414 0 0 1 2.791.76.942.942 0 0 0 .346 1.23.878.878 0 0 0 1.2-.3 8.9 8.9 0 0 1 1.1.97 9.739 9.739 0 0 1 .94 1.14.94.94 0 0 0-.291 1.24.874.874 0 0 0 1.187.35 9.53 9.53 0 0 1 .746 2.89.923.923 0 0 0 0 1.84 9.364 9.364 0 0 1-.741 2.88zM8.062 25.9a2.776 2.776 0 1 0 2.688 2.77 2.729 2.729 0 0 0-2.688-2.77zm0 3.7a.925.925 0 1 1 .9-.93.909.909 0 0 1-.9.93z"/></symbol><symbol id="dir-icon-04" viewBox="0 0 58 29"><path id="Forma_1" data-name="Forma 1" class="cls-1" d="M1303.08 1430.02h-5.94v-.06a2.961 2.961 0 0 0-1.98-2.8v-1.22a.925.925 0 1 0-1.85 0v1.22a2.965 2.965 0 0 0-1.97 2.8v.06h-5.94a.94.94 0 0 0 0 1.88h7.91v1.29a2.952 2.952 0 0 0-1.97 2.79v1.07h-2.21a3.886 3.886 0 0 0-3.77-3.01h-19.72a3.886 3.886 0 0 0-3.77 3.01h-2.21v-1.07a2.948 2.948 0 0 0-1.98-2.79v-1.29h7.92a.94.94 0 0 0 0-1.88h-5.94v-.06a2.961 2.961 0 0 0-1.98-2.8v-1.22a.92.92 0 1 0-1.84 0v1.22a2.961 2.961 0 0 0-1.98 2.8v.06h-6.94a.94.94 0 0 0 0 1.88h8.92v1.29a2.948 2.948 0 0 0-1.98 2.79v2.01a2.894 2.894 0 0 0 5.65.94h2.36a3.9 3.9 0 0 0 3.75 3.02 3.752 3.752 0 0 0-.45 1.11l-2.23 9.06h-1.25a.94.94 0 0 0 0 1.88h3.95a.94.94 0 0 0 0-1.88h-.79l2.11-8.6a2.036 2.036 0 0 1 1.97-1.57h13.14a2.036 2.036 0 0 1 1.97 1.57l2.11 8.6h-.79a.94.94 0 0 0 0 1.88h3.95a.94.94 0 0 0 0-1.88h-1.25l-2.23-9.06a3.521 3.521 0 0 0-.46-1.11 3.9 3.9 0 0 0 3.76-3.02h2.36a2.894 2.894 0 0 0 5.65-.94v-2.01a2.948 2.948 0 0 0-1.98-2.79v-1.29h7.92a.94.94 0 0 0 0-1.88zm-47.37-.06a1.05 1.05 0 1 1 2.1 0v.06h-2.1v-.06zm1.05 9.1a1.061 1.061 0 0 1-1.05-1.07v-2.01a1.05 1.05 0 1 1 2.1 0v2.01a1.061 1.061 0 0 1-1.05 1.07zm28.6 1h-19.72a2.07 2.07 0 0 1 0-4.14h19.72a2.07 2.07 0 0 1 0 4.14zm9.93-2.07a1.05 1.05 0 1 1-2.1 0v-2.01a1.05 1.05 0 1 1 2.1 0v2.01zm-2.1-8.03a1.05 1.05 0 1 1 2.1 0v.06h-2.1v-.06z" transform="translate(-1246 -1425)"/></symbol><symbol id="doc-icon" viewBox="0 0 47 60"><path id="Forma_1" data-name="Forma 1" class="cls-1" d="M1027 2894h-25a1 1 0 0 0 0 2h25a1 1 0 0 0 0-2zm-25-6h10a1 1 0 0 0 0-2h-10a1 1 0 0 0 0 2zm25 14h-25a1 1 0 0 0 0 2h25a1 1 0 0 0 0-2zm0 8h-25a1 1 0 0 0 0 2h25a1 1 0 0 0 0-2zm0 8h-25a1 1 0 0 0 0 2h25a1 1 0 0 0 0-2zm-3.59-46H991v60h47v-45.41zm.59 3.41l10.59 10.59H1024v-10.59zM993 2930v-56h29v14h14v42h-43z" transform="translate(-991 -2872)"/></symbol><symbol id="home-icon" viewBox="0 0 18 15"><path id="Forma_1" data-name="Forma 1" class="cls-1" d="M349.012 266v-6.013h3.975l.032 6.013h3.968l.032-7.059H360L351 251l-9 7.941h3.012V266h4z" transform="translate(-342 -251)"/></symbol><symbol id="map-icon" viewBox="0 0 21 25"><path class="cls-1" d="M10.494 0A10.279 10.279 0 0 0 0 10.021a9.453 9.453 0 0 0 .186 1.882c.006.036.028.146.072.335a9.583 9.583 0 0 0 .7 1.975c1.131 2.542 3.618 6.447 9.073 10.629a.771.771 0 0 0 .933 0c5.451-4.182 7.943-8.087 9.073-10.629a9.418 9.418 0 0 0 .7-1.975c.044-.189.066-.3.071-.335A9.839 9.839 0 0 0 21 10.021 10.3 10.3 0 0 0 10.494 0zm8.848 11.657v.031c-.006.026-.022.105-.05.225v.011a8.052 8.052 0 0 1-.609 1.708.225.225 0 0 1-.011.021c-1.026 2.322-3.277 5.865-8.173 9.727-4.9-3.863-7.146-7.406-8.172-9.727a.225.225 0 0 1-.011-.021 8.592 8.592 0 0 1-.61-1.708v-.012a2.127 2.127 0 0 1-.049-.225v-.037a8.169 8.169 0 0 1-.165-1.635 9.022 9.022 0 0 1 18.025 0 8.151 8.151 0 0 1-.175 1.641zm-8.848-7.888a6.369 6.369 0 1 0 6.664 6.363 6.528 6.528 0 0 0-6.664-6.364zm0 11.311a4.953 4.953 0 1 1 5.182-4.948 5.075 5.075 0 0 1-5.182 4.946z"/></symbol><symbol id="phone-icon" viewBox="0 0 23.97 24"><path class="cls-1" d="M18.96 14.86a2.351 2.351 0 0 0-1.71-.786 2.458 2.458 0 0 0-1.74.781l-1.6 1.6c-.13-.071-.27-.136-.39-.2-.18-.092-.36-.178-.5-.269a17.306 17.306 0 0 1-4.18-3.8 10.075 10.075 0 0 1-1.37-2.16c.41-.38.8-.776 1.18-1.156.14-.142.28-.289.42-.431a2.318 2.318 0 0 0 0-3.508L7.69 3.547c-.16-.157-.32-.319-.48-.481-.3-.314-.62-.639-.95-.943a2.4 2.4 0 0 0-1.7-.745 2.5 2.5 0 0 0-1.73.745c0 .005 0 .005-.01.01L1.1 3.872A3.7 3.7 0 0 0 0 6.229 8.829 8.829 0 0 0 .65 9.99a21.8 21.8 0 0 0 3.88 6.468 23.886 23.886 0 0 0 7.95 6.22 12.453 12.453 0 0 0 4.47 1.318c.11.005.22.01.32.01a3.833 3.833 0 0 0 2.93-1.257.045.045 0 0 1 .02-.026 10.874 10.874 0 0 1 .89-.917c.21-.208.44-.426.66-.654a2.531 2.531 0 0 0 .76-1.754 2.443 2.443 0 0 0-.78-1.739zm1.82 5.338c-.2.213-.4.406-.62.619-.33.314-.66.644-.98 1.014a2.436 2.436 0 0 1-1.91.806c-.07 0-.15 0-.23-.005a11 11 0 0 1-3.96-1.186 22.6 22.6 0 0 1-7.49-5.86 20.437 20.437 0 0 1-3.65-6.078 7.07 7.07 0 0 1-.57-3.174 2.329 2.329 0 0 1 .7-1.506L3.8 3.1a1.152 1.152 0 0 1 .77-.36 1.078 1.078 0 0 1 .74.355c.01 0 .01.01.02.015.31.289.6.588.91.908.16.162.32.324.48.492l1.39 1.384a.964.964 0 0 1 0 1.571c-.15.147-.29.294-.44.436-.42.436-.83.841-1.27 1.236-.01.01-.02.016-.03.026a1.044 1.044 0 0 0-.26 1.151c0 .015.01.03.01.045a11.144 11.144 0 0 0 1.64 2.672l.01.005a18.746 18.746 0 0 0 4.5 4.1c.21.132.43.239.63.34.18.091.35.177.5.268.02.01.04.026.06.036a1.049 1.049 0 0 0 1.28-.223l1.73-1.734a1.151 1.151 0 0 1 .77-.38 1.047 1.047 0 0 1 .73.37c0 .005 0 .005.01.01l2.8 2.793a1 1 0 0 1 0 1.584zm-7.83-14.5a6.505 6.505 0 0 1 5.32 5.313.689.689 0 0 0 .68.568 1.067 1.067 0 0 0 .12-.01.687.687 0 0 0 .56-.791 7.9 7.9 0 0 0-6.44-6.428.692.692 0 0 0-.79.557.683.683 0 0 0 .55.787zm11.03 4.882A13 13 0 0 0 13.38-.005a.683.683 0 1 0-.22 1.348 11.6 11.6 0 0 1 9.47 9.46.671.671 0 0 0 .67.568 1.032 1.032 0 0 0 .12-.01.678.678 0 0 0 .56-.785z"/></symbol><symbol id="temp-icon-left-arrow" viewBox="0 0 31.494 31.494"><path d="M10.273 5.01a1.117 1.117 0 0 1 1.587 1.57l-8.047 8.047h26.554c.62 0 1.127.492 1.127 1.11 0 .62-.508 1.128-1.127 1.128H3.813l8.047 8.032c.43.444.43 1.16 0 1.587a1.112 1.112 0 0 1-1.587 0L.32 16.532a1.12 1.12 0 0 1 0-1.57l9.953-9.953z" fill="#1E201D"/></symbol><symbol id="temp-icon-right-arrow" viewBox="0 0 31.49 31.49"><path d="M21.205 5.007a1.117 1.117 0 0 0-1.587 1.57l8.047 8.048H1.11c-.618 0-1.11.493-1.11 1.112 0 .62.492 1.127 1.11 1.127h26.555l-8.047 8.032c-.43.444-.43 1.16 0 1.587.444.444 1.16.444 1.587 0l9.952-9.952a1.092 1.092 0 0 0 0-1.57l-9.952-9.95z" fill="#1E201D"/></symbol></svg>